<svg xmlns="http://www.w3.org/2000/svg" width="24.641" height="24.641" viewBox="0 0 24.641 24.641">
  <path id="Icon_awesome-arrow-circle-right" data-name="Icon awesome-arrow-circle-right" d="M12.883.563A12.321,12.321,0,1,1,.563,12.883,12.319,12.319,0,0,1,12.883.563ZM11.447,7.7l3.751,3.6H6.127a1.189,1.189,0,0,0-1.192,1.192v.795a1.189,1.189,0,0,0,1.192,1.192H15.2l-3.751,3.6a1.194,1.194,0,0,0-.02,1.7l.546.542a1.187,1.187,0,0,0,1.684,0l6.593-6.588a1.187,1.187,0,0,0,0-1.684l-6.593-6.6a1.187,1.187,0,0,0-1.684,0l-.546.542a1.2,1.2,0,0,0,.02,1.709Z" transform="translate(-0.563 -0.563)" fill="#ffeab7"/>
</svg>
